Land_normalized_Motion_pl02
version=1
nRows=20
nColumns=43
inDegrees=yes
endheader
time		pelvis_tilt		pelvis_list		pelvis_rotation		pelvis_tx		pelvis_ty		pelvis_tz		hip_flexion_r		hip_adduction_r		hip_rotation_r		knee_angle_r		ankle_angle_r		subtalar_angle_r		mtp_angle_r		hip_flexion_l		hip_adduction_l		hip_rotation_l		knee_angle_l		ankle_angle_l		subtalar_angle_l		mtp_angle_l		lumbar_extension		lumbar_bending		lumbar_rotation		neck_flexion		neck_lateral_bending		neck_rotation		arm_flex_r		arm_add_r		arm_rot_r		elbow_flex_r		pro_sup_r		wrist_flex_r		wrist_dev_r		hand_finger_flex_r		arm_flex_l		arm_add_l		arm_rot_l		elbow_flex_l		pro_sup_l		wrist_flex_l		wrist_dev_l		hand_finger_flex_l		
1.002500		-3.016050		16.747060		95.120303		0.007884		1.038425		0.552773		10.707628		-4.102245		-11.751203		-26.958977		-30.530769		-2.529267		17.462155		11.523450		-2.451158		-7.495653		-27.113298		-27.457699		-7.819335		23.709054		-39.739506		-3.800716		-7.562747		-40.101667		2.042097		3.315053		-66.834312		-17.141402		-30.820244		54.786751		92.937325		-13.933089		-3.196295		34.891857		-72.938610		-23.465406		-30.454765		71.057598		106.957612		-19.369135		3.739555		77.603841		
1.005227		-2.898073		16.363016		95.505250		0.007113		1.025830		0.548987		11.847630		-4.164183		-11.551438		-28.532487		-30.548076		-2.896135		17.149266		12.995898		-2.414266		-6.744426		-29.041745		-27.095824		-7.616433		24.181802		-39.456629		-3.431276		-7.632932		-39.681822		2.043886		2.930757		-66.276101		-16.895296		-31.082126		54.509575		93.171692		-14.122265		-3.139206		34.583285		-72.092110		-23.700379		-30.328631		70.557894		107.479602		-19.443370		3.892278		77.654397		
1.007955		-3.004508		16.751347		95.649486		0.006674		1.014746		0.545095		12.028877		-4.364685		-11.318300		-29.795486		-30.823674		-2.950432		17.067487		13.341739		-2.286815		-6.589041		-30.539155		-27.110477		-7.546061		24.263987		-40.075722		-3.390927		-7.696115		-38.938946		2.164241		2.889073		-65.518266		-16.934043		-31.099694		54.167011		93.250853		-14.212645		-3.029205		34.505458		-71.242567		-23.849089		-30.218936		70.087606		107.559540		-19.460571		3.983812		77.619843		
1.010682		-3.110518		17.058343		95.842120		0.006187		1.003371		0.541273		12.326534		-4.564283		-11.060419		-31.047169		-31.138581		-3.043962		16.981758		13.826325		-2.135125		-6.375590		-32.085026		-27.170985		-7.411497		24.341190		-40.620523		-3.320661		-7.764380		-38.139063		2.265087		2.759863		-64.777229		-16.945424		-31.117363		53.922391		93.381400		-14.303119		-2.947144		34.434010		-70.371178		-24.055038		-30.095569		69.658337		107.681573		-19.471967		4.072066		77.597123		
1.013409		-3.194281		17.287003		96.051969		0.005731		0.991749		0.537519		12.726670		-4.727183		-10.779175		-32.267451		-31.428651		-3.137657		16.931565		14.426814		-1.995808		-6.147781		-33.607347		-27.332769		-7.238523		24.413024		-41.088539		-3.221670		-7.822810		-37.309196		2.345615		2.592759		-64.031886		-16.984562		-31.093716		53.728884		93.575764		-14.357036		-2.877936		34.379343		-69.459750		-24.314488		-29.944983		69.248211		107.835452		-19.466734		4.160295		77.587498		
1.016136		-3.189090		17.157953		96.264724		0.005180		0.979315		0.533885		13.612075		-4.821187		-10.387785		-33.595944		-31.466934		-3.195602		17.108056		15.522624		-1.870344		-5.807210		-35.217521		-27.561265		-7.055983		24.613908		-41.147947		-3.046327		-7.830337		-36.589561		2.369886		2.301112		-63.321525		-17.001212		-31.161730		53.605975		94.038683		-14.298601		-2.887004		34.343842		-68.509705		-24.619383		-29.776891		68.861256		108.139432		-19.410319		4.259845		77.660495		
1.018864		-3.155383		17.046142		96.442121		0.004691		0.966922		0.530228		14.469413		-4.847776		-9.938187		-34.908300		-31.143547		-3.203465		17.442621		16.580478		-1.774527		-5.515968		-36.756587		-27.744841		-6.929062		24.867886		-41.226681		-2.871065		-7.810405		-35.868030		2.422099		2.080118		-62.553527		-17.098551		-31.133125		53.481011		94.528388		-14.156040		-2.885213		34.328257		-67.514441		-24.946216		-29.569182		68.449608		108.442319		-19.332580		4.359082		77.736596		
1.021591		-3.199965		17.046228		96.531030		0.004338		0.954724		0.526487		15.201954		-4.906694		-9.310402		-36.342091		-29.915979		-2.550145		18.558500		17.425955		-1.651231		-5.441364		-38.188484		-27.663447		-6.792996		25.586882		-41.437906		-2.821449		-7.752901		-35.083552		2.512194		1.945141		-61.754960		-17.283892		-30.986462		53.364196		94.920869		-13.855563		-2.876507		34.294710		-66.482080		-25.285920		-29.361951		68.037029		108.733144		-19.210538		4.435616		77.808981		
1.024318		-3.266775		16.886379		96.579932		0.003985		0.942065		0.523006		16.166745		-4.946512		-8.433055		-37.989334		-27.994444		-1.846509		21.708140		18.506548		-1.465556		-5.298179		-39.704589		-27.489941		-6.718687		28.173299		-41.508964		-2.831071		-7.697295		-34.204677		2.583845		1.815114		-60.990361		-17.517570		-30.843525		53.389726		95.429963		-13.321372		-2.919859		34.014146		-65.481989		-25.647734		-29.144171		67.737164		109.205527		-18.988588		4.480266		77.970606		
1.027045		-3.185243		17.107937		96.602478		0.003788		0.930245		0.519400		16.639981		-4.769268		-7.747529		-39.732645		-25.035179		-1.028630		23.537596		19.082410		-1.460532		-5.087196		-41.211676		-26.252840		-6.709262		29.790658		-41.969200		-2.681173		-7.540726		-33.299499		2.652368		1.644993		-60.175085		-17.831962		-30.507410		53.470382		95.523867		-13.039117		-2.915237		33.875271		-64.379946		-25.986129		-28.923619		67.390033		109.452448		-18.906415		4.529247		77.985594		
1.029773		-3.130379		17.265485		96.613644		0.003513		0.918310		0.515948		17.192235		-4.594120		-6.989722		-41.736605		-21.034532		0.082241		24.668784		19.734897		-1.382448		-4.826232		-42.894157		-24.132227		-6.571152		31.039928		-42.386635		-2.559257		-7.398243		-32.352651		2.710810		1.491102		-59.354946		-18.223680		-30.059894		53.606019		95.471759		-12.838570		-2.926105		33.820077		-63.237793		-26.346240		-28.642700		67.081874		109.748076		-18.824161		4.560803		78.017516		
1.032500		-3.078133		17.393226		96.601056		0.003226		0.906342		0.512628		17.783902		-4.415144		-6.255190		-43.954886		-16.387733		1.243404		25.532937		20.411542		-1.272684		-4.529330		-44.759524		-21.183945		-6.476024		32.340813		-42.788751		-2.452293		-7.244908		-31.374542		2.758706		1.354939		-58.518540		-18.669524		-29.541979		53.811099		95.362440		-12.650440		-2.963501		33.759405		-62.061129		-26.719996		-28.337180		66.798540		110.115928		-18.729955		4.565131		78.095083		
1.035227		-3.035843		17.550424		96.581859		0.002980		0.894478		0.509383		18.335916		-4.243900		-5.648129		-46.332066		-11.389606		2.336917		25.932226		21.031867		-1.137747		-4.227659		-46.809600		-17.429372		-6.477558		33.453116		-43.237621		-2.362149		-7.107124		-30.370071		2.787710		1.219324		-57.645225		-19.164574		-28.969595		54.081112		95.168893		-12.504846		-3.021349		33.690953		-60.855978		-27.117172		-27.991137		66.538917		110.518126		-18.643315		4.538763		78.204532		
1.037955		-3.020732		17.789293		96.573020		0.002777		0.882792		0.506222		18.805246		-4.071513		-5.176242		-48.805257		-6.434754		2.824676		25.410217		21.544368		-0.953993		-3.921361		-49.009994		-13.197333		-6.805082		33.900113		-43.782149		-2.297517		-7.016185		-29.384747		2.821833		1.118421		-56.755112		-19.711811		-28.323243		54.465969		94.855868		-12.438695		-3.093477		33.612502		-59.714853		-27.530650		-27.626599		66.398705		110.922330		-18.580507		4.461077		78.377020		
1.040682		-3.053173		17.799779		96.558170		0.002426		0.870848		0.503179		19.598442		-4.062232		-4.880432		-51.448795		-1.254794		3.956332		22.152796		22.282970		-0.728030		-3.741995		-51.305827		-8.579360		-6.479807		33.562196		-44.118016		-2.290003		-6.915250		-28.316498		2.934823		1.001814		-55.803969		-20.383132		-27.382478		54.736007		93.941452		-12.619980		-3.102588		33.360696		-58.360429		-27.955041		-27.239466		66.100255		111.635515		-18.549255		4.281988		78.862354		
1.043409		-3.040044		18.096915		96.472229		0.002266		0.859557		0.500164		20.045627		-3.948884		-4.720037		-53.890485		3.122683		4.400457		20.703862		22.685780		-0.546747		-3.575732		-53.638314		-4.106657		-7.030874		32.107335		-44.755018		-2.245936		-6.696552		-27.271426		2.879496		0.851983		-54.800552		-20.951768		-26.735199		55.079932		93.682897		-12.631048		-3.191609		33.376934		-56.989765		-28.440133		-26.770976		65.909075		111.903970		-18.592550		4.216262		78.966673		
1.046136		-3.127184		18.188512		96.447360		0.001926		0.848036		0.497260		20.818799		-4.044937		-4.744792		-56.464987		7.469860		5.011616		16.565077		23.309544		-0.275768		-3.585819		-55.983715		0.504184		-6.948192		27.611192		-45.200936		-2.270985		-6.532988		-26.201160		2.915274		0.633816		-53.755398		-21.548968		-25.941570		55.375515		93.026969		-12.916501		-3.283855		33.390931		-55.505728		-29.034989		-26.134741		65.642402		112.370726		-18.704946		4.076413		79.280415		
1.048864		-3.157933		18.502125		96.354220		0.001669		0.837183		0.494427		21.346043		-3.984810		-4.777191		-58.811611		10.888712		4.677233		14.957330		23.658422		-0.081201		-3.660338		-58.154984		4.247409		-7.912334		25.362047		-45.880209		-2.267332		-6.406062		-25.201761		2.983706		0.457941		-52.574161		-22.185645		-25.353858		55.767493		92.911766		-12.957052		-3.352068		33.453835		-53.979744		-29.446475		-25.637306		65.367151		112.598086		-18.732874		4.069539		79.362351		
1.051591		-3.207960		18.858211		96.252296		0.001525		0.826768		0.491790		21.861324		-3.969345		-4.978813		-60.995177		13.452117		3.862841		15.143342		23.954739		0.097834		-3.815088		-60.166538		7.247052		-9.126407		25.377009		-46.658213		-2.301231		-6.261010		-24.079390		3.081537		0.390473		-51.208351		-22.843704		-24.699439		56.029320		92.995858		-12.869678		-3.329838		33.446224		-52.333117		-29.858598		-25.191763		65.080618		112.769636		-18.702688		4.080875		79.309703		
1.054318		-3.222525		18.490579		96.025184		0.001516		0.814943		0.489288		23.451296		-3.900657		-4.918455		-63.507259		15.974941		3.014763		13.046744		25.157613		0.309903		-4.039756		-62.277054		10.475441		-10.029318		21.524949		-46.611236		-2.464830		-6.048293		-23.286842		3.173388		0.301806		-49.894569		-23.637642		-23.618418		56.265034		92.034619		-13.461880		-3.437864		33.365469		-50.751063		-30.362407		-24.582560		64.875164		113.375906		-18.858387		3.910451		79.677251		
